<?xml version="1.0" encoding="UTF-8"?>
<svg xmlns="http://www.w3.org/2000/svg" version="1.1" viewBox="0 0 609.45 503.15">
  <!-- Generator: Adobe Illustrator 29.0.1, SVG Export Plug-In . SVG Version: 2.1.0 Build 192)  -->
  <defs>
    <style>
      .st0 {
        fill: #662d91;
      }

      .st1 {
        stroke: #00aeef;
      }

      .st1, .st2, .st3, .st4, .st5 {
        fill: none;
        stroke-miterlimit: 10;
        stroke-width: 5px;
      }

      .st6 {
        opacity: .6;
      }

      .st6, .st7 {
        fill: #a7a9ac;
      }

      .st7 {
        opacity: .5;
      }

      .st2 {
        stroke: #662d91;
      }

      .st8, .st9, .st10 {
        opacity: .3;
      }

      .st8, .st11, .st10, .st12 {
        fill: #262262;
      }

      .st8, .st13 {
        display: none;
      }

      .st14, .st15, .st16 {
        fill: #231f20;
      }

      .st17 {
        fill: #6d6e71;
        opacity: .65;
      }

      .st3 {
        stroke: #ed1c24;
      }

      .st18 {
        fill: #fbb040;
      }

      .st4 {
        stroke: #00a651;
      }

      .st9, .st19 {
        fill: #ef4136;
      }

      .st20 {
        fill: #f9ed32;
      }

      .st15 {
        font-family: MyriadPro-Regular, 'Myriad Pro';
        font-size: 12px;
      }

      .st21 {
        fill: #fff;
      }

      .st22 {
        fill: #808285;
      }

      .st23 {
        fill: #9e1f63;
      }

      .st5 {
        stroke: #231f20;
      }

      .st12 {
        opacity: .68;
      }

      .st24 {
        fill: #fff200;
      }

      .st16 {
        opacity: .4;
      }
    </style>
  </defs>
  <g id="Bed_Zones">
    <rect id="OOW" class="st7" y="127.56" width="609.45" height="22.68"/>
    <rect id="Back_cover" class="st14" width="609.45" height="127.56"/>
    <rect id="Hold" class="st7" y="269.29" width="609.45" height="22.68"/>
    <rect id="Spongebar" class="st14" y="291.97" width="609.45" height="34.02"/>
    <rect id="Working" class="st18" y="150.24" width="609.45" height="119.06"/>
    <rect id="Comb" class="st20" y="325.98" width="609.45" height="82.2"/>
    <g id="Stitch_cutouts">
      <circle class="st21" cx="18.43" cy="405.35" r="4.25"/>
      <circle class="st21" cx="36.85" cy="405.35" r="4.25"/>
      <circle class="st21" cx="55.28" cy="405.35" r="4.25"/>
      <circle class="st21" cx="73.7" cy="405.35" r="4.25"/>
      <circle class="st21" cx="92.13" cy="405.35" r="4.25"/>
      <circle class="st21" cx="110.55" cy="405.35" r="4.25"/>
      <circle class="st21" cx="128.98" cy="405.35" r="4.25"/>
      <circle class="st21" cx="147.4" cy="405.35" r="4.25"/>
      <circle class="st21" cx="165.83" cy="405.35" r="4.25"/>
      <circle class="st21" cx="184.25" cy="405.35" r="4.25"/>
      <circle class="st21" cx="202.68" cy="405.35" r="4.25"/>
      <circle class="st21" cx="221.1" cy="405.35" r="4.25"/>
      <circle class="st21" cx="239.53" cy="405.35" r="4.25"/>
      <circle class="st21" cx="257.95" cy="405.35" r="4.25"/>
      <circle class="st21" cx="276.38" cy="405.35" r="4.25"/>
      <circle class="st21" cx="442.2" cy="405.35" r="4.25"/>
      <circle class="st21" cx="460.63" cy="405.35" r="4.25"/>
      <circle class="st21" cx="479.06" cy="405.35" r="4.25"/>
      <circle class="st21" cx="497.48" cy="405.35" r="4.25"/>
      <circle class="st21" cx="515.91" cy="405.35" r="4.25"/>
      <circle class="st21" cx="534.33" cy="405.35" r="4.25"/>
      <circle class="st21" cx="552.76" cy="405.35" r="4.25"/>
      <circle class="st21" cx="571.18" cy="405.35" r="4.25"/>
      <circle class="st21" cx="294.8" cy="405.35" r="4.25"/>
      <circle class="st21" cx="313.23" cy="405.35" r="4.25"/>
      <circle class="st21" cx="331.65" cy="405.35" r="4.25"/>
      <circle class="st21" cx="350.08" cy="405.35" r="4.25"/>
      <circle class="st21" cx="368.5" cy="405.35" r="4.25"/>
      <circle class="st21" cx="386.93" cy="405.35" r="4.25"/>
      <circle class="st21" cx="405.35" cy="405.35" r="4.25"/>
      <circle class="st21" cx="423.78" cy="405.35" r="4.25"/>
    </g>
    <rect id="Projection" class="st0" y="408.19" width="609.45" height="97.8"/>
    <rect id="Hold1" data-name="Hold" class="st7" y="269.29" width="609.45" height="5.67"/>
    <rect id="OOW1" data-name="OOW" class="st6" y="144.57" width="609.45" height="5.67"/>
    <rect id="Working1" data-name="Working" class="st19" y="231.02" width="304.72" height="22.68"/>
    <rect id="Working2" data-name="Working" class="st23" y="180" width="304.72" height="22.68"/>
    <rect id="Working3" data-name="Working" class="st19" x="304.72" y="231.02" width="304.72" height="22.68" transform="translate(914.17 484.72) rotate(-180)"/>
    <rect id="Working4" data-name="Working" class="st23" x="304.72" y="180" width="304.72" height="22.68" transform="translate(914.17 382.68) rotate(-180)"/>
  </g>
  <g id="Needles">
    <g>
      <line class="st2" x1="18.43" y1="118.35" x2="18.43" y2="243.07"/>
      <line class="st5" x1="18.43" y1="243.07" x2="18.43" y2="253.98"/>
      <line class="st4" x1="18.43" y1="253.98" x2="18.43" y2="438.94"/>
      <line class="st3" x1="18.43" y1="438.94" x2="18.43" y2="465.87"/>
      <line class="st1" x1="18.43" y1="412.02" x2="18.43" y2="438.94"/>
    </g>
    <g>
      <line class="st2" x1="36.85" y1="118.35" x2="36.85" y2="243.07"/>
      <line class="st5" x1="36.85" y1="243.07" x2="36.85" y2="253.98"/>
      <line class="st4" x1="36.85" y1="253.98" x2="36.85" y2="438.94"/>
      <line class="st3" x1="36.85" y1="438.94" x2="36.85" y2="465.87"/>
      <line class="st1" x1="36.85" y1="412.02" x2="36.85" y2="438.94"/>
    </g>
    <g>
      <line class="st2" x1="55.28" y1="119.06" x2="55.28" y2="243.78"/>
      <line class="st5" x1="55.28" y1="243.78" x2="55.28" y2="254.69"/>
      <line class="st4" x1="55.28" y1="254.69" x2="55.28" y2="439.65"/>
      <line class="st3" x1="55.28" y1="439.65" x2="55.28" y2="466.58"/>
      <line class="st1" x1="55.28" y1="412.72" x2="55.28" y2="439.65"/>
    </g>
    <g>
      <line class="st2" x1="73.7" y1="116.22" x2="73.7" y2="240.94"/>
      <line class="st5" x1="73.7" y1="240.94" x2="73.7" y2="251.86"/>
      <line class="st4" x1="73.7" y1="251.86" x2="73.7" y2="436.82"/>
      <line class="st3" x1="73.7" y1="436.82" x2="73.7" y2="463.75"/>
      <line class="st1" x1="73.7" y1="409.89" x2="73.7" y2="436.82"/>
    </g>
    <g>
      <line class="st2" x1="92.13" y1="116.22" x2="92.13" y2="240.94"/>
      <line class="st5" x1="92.13" y1="240.94" x2="92.13" y2="251.86"/>
      <line class="st4" x1="92.13" y1="251.86" x2="92.13" y2="436.82"/>
      <line class="st3" x1="92.13" y1="436.82" x2="92.13" y2="463.75"/>
      <line class="st1" x1="92.13" y1="409.89" x2="92.13" y2="436.82"/>
    </g>
    <g>
      <line class="st2" x1="110.55" y1="116.22" x2="110.55" y2="240.94"/>
      <line class="st5" x1="110.55" y1="240.94" x2="110.55" y2="251.86"/>
      <line class="st4" x1="110.55" y1="251.86" x2="110.55" y2="436.82"/>
      <line class="st3" x1="110.55" y1="436.82" x2="110.55" y2="463.75"/>
      <line class="st1" x1="110.55" y1="409.89" x2="110.55" y2="436.82"/>
    </g>
    <g>
      <line class="st2" x1="128.98" y1="116.22" x2="128.98" y2="240.94"/>
      <line class="st5" x1="128.98" y1="240.94" x2="128.98" y2="251.86"/>
      <line class="st4" x1="128.98" y1="251.86" x2="128.98" y2="436.82"/>
      <line class="st3" x1="128.98" y1="436.82" x2="128.98" y2="463.75"/>
      <line class="st1" x1="128.98" y1="409.89" x2="128.98" y2="436.82"/>
    </g>
    <g>
      <line class="st2" x1="147.4" y1="116.22" x2="147.4" y2="240.94"/>
      <line class="st5" x1="147.4" y1="240.94" x2="147.4" y2="251.86"/>
      <line class="st4" x1="147.4" y1="251.86" x2="147.4" y2="436.82"/>
      <line class="st3" x1="147.4" y1="436.82" x2="147.4" y2="463.75"/>
      <line class="st1" x1="147.4" y1="409.89" x2="147.4" y2="436.82"/>
    </g>
    <g>
      <line class="st2" x1="165.83" y1="116.22" x2="165.83" y2="240.94"/>
      <line class="st5" x1="165.83" y1="240.94" x2="165.83" y2="251.86"/>
      <line class="st4" x1="165.83" y1="251.86" x2="165.83" y2="436.82"/>
      <line class="st3" x1="165.83" y1="436.82" x2="165.83" y2="463.75"/>
      <line class="st1" x1="165.83" y1="409.89" x2="165.83" y2="436.82"/>
    </g>
    <g>
      <line class="st2" x1="184.25" y1="116.22" x2="184.25" y2="240.94"/>
      <line class="st5" x1="184.25" y1="240.94" x2="184.25" y2="251.86"/>
      <line class="st4" x1="184.25" y1="251.86" x2="184.25" y2="436.82"/>
      <line class="st3" x1="184.25" y1="436.82" x2="184.25" y2="463.75"/>
      <line class="st1" x1="184.25" y1="409.89" x2="184.25" y2="436.82"/>
    </g>
    <g>
      <line class="st2" x1="202.68" y1="116.22" x2="202.68" y2="240.94"/>
      <line class="st5" x1="202.68" y1="240.94" x2="202.68" y2="251.86"/>
      <line class="st4" x1="202.68" y1="251.86" x2="202.68" y2="436.82"/>
      <line class="st3" x1="202.68" y1="436.82" x2="202.68" y2="463.75"/>
      <line class="st1" x1="202.68" y1="409.89" x2="202.68" y2="436.82"/>
    </g>
    <g>
      <line class="st2" x1="221.1" y1="119.06" x2="221.1" y2="243.78"/>
      <line class="st5" x1="221.1" y1="243.78" x2="221.1" y2="254.69"/>
      <line class="st4" x1="221.1" y1="254.69" x2="221.1" y2="439.65"/>
      <line class="st3" x1="221.1" y1="439.65" x2="221.1" y2="466.58"/>
      <line class="st1" x1="221.1" y1="412.72" x2="221.1" y2="439.65"/>
    </g>
    <g>
      <line class="st2" x1="239.53" y1="127.56" x2="239.53" y2="252.28"/>
      <line class="st5" x1="239.53" y1="252.28" x2="239.53" y2="263.2"/>
      <line class="st4" x1="239.53" y1="263.2" x2="239.53" y2="448.16"/>
      <line class="st3" x1="239.53" y1="448.16" x2="239.53" y2="475.09"/>
      <line class="st1" x1="239.53" y1="421.23" x2="239.53" y2="448.16"/>
    </g>
    <g>
      <line class="st2" x1="257.95" y1="133.23" x2="257.95" y2="257.95"/>
      <line class="st5" x1="257.95" y1="257.95" x2="257.95" y2="268.87"/>
      <line class="st4" x1="257.95" y1="268.87" x2="257.95" y2="453.83"/>
      <line class="st3" x1="257.95" y1="453.83" x2="257.95" y2="480.76"/>
      <line class="st1" x1="257.95" y1="426.9" x2="257.95" y2="453.83"/>
    </g>
    <g>
      <line class="st2" x1="276.38" y1="131.81" x2="276.38" y2="256.54"/>
      <line class="st5" x1="276.38" y1="256.54" x2="276.38" y2="267.45"/>
      <line class="st4" x1="276.38" y1="267.45" x2="276.38" y2="452.41"/>
      <line class="st3" x1="276.38" y1="452.41" x2="276.38" y2="479.34"/>
      <line class="st1" x1="276.38" y1="425.48" x2="276.38" y2="452.41"/>
    </g>
    <g>
      <line class="st2" x1="294.8" y1="125.43" x2="294.8" y2="250.16"/>
      <line class="st5" x1="294.8" y1="250.16" x2="294.8" y2="261.07"/>
      <line class="st4" x1="294.8" y1="261.07" x2="294.8" y2="446.03"/>
      <line class="st3" x1="294.8" y1="446.03" x2="294.8" y2="472.96"/>
      <line class="st1" x1="294.8" y1="419.1" x2="294.8" y2="446.03"/>
    </g>
    <g>
      <line class="st2" x1="313.23" y1="119.06" x2="313.23" y2="243.78"/>
      <line class="st5" x1="313.23" y1="243.78" x2="313.23" y2="254.69"/>
      <line class="st4" x1="313.23" y1="254.69" x2="313.23" y2="439.65"/>
      <line class="st3" x1="313.23" y1="439.65" x2="313.23" y2="466.58"/>
      <line class="st1" x1="313.23" y1="412.72" x2="313.23" y2="439.65"/>
    </g>
    <g>
      <line class="st2" x1="331.65" y1="119.06" x2="331.65" y2="243.78"/>
      <line class="st5" x1="331.65" y1="243.78" x2="331.65" y2="254.69"/>
      <line class="st4" x1="331.65" y1="254.69" x2="331.65" y2="439.65"/>
      <line class="st3" x1="331.65" y1="439.65" x2="331.65" y2="466.58"/>
      <line class="st1" x1="331.65" y1="412.72" x2="331.65" y2="439.65"/>
    </g>
    <g>
      <line class="st2" x1="350.08" y1="113.39" x2="350.08" y2="238.11"/>
      <line class="st5" x1="350.08" y1="238.11" x2="350.08" y2="249.02"/>
      <line class="st4" x1="350.08" y1="249.02" x2="350.08" y2="433.98"/>
      <line class="st3" x1="350.08" y1="433.98" x2="350.08" y2="460.91"/>
      <line class="st1" x1="350.08" y1="407.06" x2="350.08" y2="433.98"/>
    </g>
    <g>
      <line class="st2" x1="368.5" y1="99.21" x2="368.5" y2="223.94"/>
      <line class="st5" x1="368.5" y1="223.94" x2="368.5" y2="234.85"/>
      <line class="st4" x1="368.5" y1="234.85" x2="368.5" y2="419.81"/>
      <line class="st3" x1="368.5" y1="419.81" x2="368.5" y2="446.74"/>
      <line class="st1" x1="368.5" y1="392.88" x2="368.5" y2="419.81"/>
    </g>
    <g>
      <line class="st2" x1="386.93" y1="85.04" x2="386.93" y2="209.76"/>
      <line class="st5" x1="386.93" y1="209.76" x2="386.93" y2="220.68"/>
      <line class="st4" x1="386.93" y1="220.68" x2="386.93" y2="405.64"/>
      <line class="st3" x1="386.93" y1="405.64" x2="386.93" y2="432.57"/>
      <line class="st1" x1="386.93" y1="378.71" x2="386.93" y2="405.64"/>
    </g>
    <g>
      <line class="st2" x1="405.35" y1="72.28" x2="405.35" y2="197.01"/>
      <line class="st5" x1="405.35" y1="197.01" x2="405.35" y2="207.92"/>
      <line class="st4" x1="405.35" y1="207.92" x2="405.35" y2="392.88"/>
      <line class="st3" x1="405.35" y1="392.88" x2="405.35" y2="419.81"/>
      <line class="st1" x1="405.35" y1="365.95" x2="405.35" y2="392.88"/>
    </g>
    <g>
      <line class="st2" x1="423.78" y1="59.53" x2="423.78" y2="184.25"/>
      <line class="st5" x1="423.78" y1="184.25" x2="423.78" y2="195.17"/>
      <line class="st4" x1="423.78" y1="195.17" x2="423.78" y2="380.13"/>
      <line class="st3" x1="423.78" y1="380.13" x2="423.78" y2="407.06"/>
      <line class="st1" x1="423.78" y1="353.2" x2="423.78" y2="380.13"/>
    </g>
    <g>
      <line class="st2" x1="442.2" y1="48.9" x2="442.2" y2="173.62"/>
      <line class="st5" x1="442.2" y1="173.62" x2="442.2" y2="184.54"/>
      <line class="st4" x1="442.2" y1="184.54" x2="442.2" y2="369.5"/>
      <line class="st3" x1="442.2" y1="369.5" x2="442.2" y2="396.43"/>
      <line class="st1" x1="442.2" y1="342.57" x2="442.2" y2="369.5"/>
    </g>
    <g>
      <line class="st2" x1="460.63" y1="43.94" x2="460.63" y2="168.66"/>
      <line class="st5" x1="460.63" y1="168.66" x2="460.63" y2="179.57"/>
      <line class="st4" x1="460.63" y1="179.57" x2="460.63" y2="364.54"/>
      <line class="st3" x1="460.63" y1="364.54" x2="460.63" y2="391.46"/>
      <line class="st1" x1="460.63" y1="337.61" x2="460.63" y2="364.54"/>
    </g>
    <g>
      <line class="st2" x1="479.06" y1="43.94" x2="479.06" y2="168.66"/>
      <line class="st5" x1="479.06" y1="168.66" x2="479.06" y2="179.57"/>
      <line class="st4" x1="479.06" y1="179.57" x2="479.06" y2="364.54"/>
      <line class="st3" x1="479.06" y1="364.54" x2="479.06" y2="391.46"/>
      <line class="st1" x1="479.06" y1="337.61" x2="479.06" y2="364.54"/>
    </g>
    <g>
      <line class="st2" x1="497.48" y1="51.02" x2="497.48" y2="175.75"/>
      <line class="st5" x1="497.48" y1="175.75" x2="497.48" y2="186.66"/>
      <line class="st4" x1="497.48" y1="186.66" x2="497.48" y2="371.62"/>
      <line class="st3" x1="497.48" y1="371.62" x2="497.48" y2="398.55"/>
      <line class="st1" x1="497.48" y1="344.69" x2="497.48" y2="371.62"/>
    </g>
    <g>
      <line class="st2" x1="515.91" y1="65.91" x2="515.91" y2="190.63"/>
      <line class="st5" x1="515.91" y1="190.63" x2="515.91" y2="201.54"/>
      <line class="st4" x1="515.91" y1="201.54" x2="515.91" y2="386.5"/>
      <line class="st3" x1="515.91" y1="386.5" x2="515.91" y2="413.43"/>
      <line class="st1" x1="515.91" y1="359.57" x2="515.91" y2="386.5"/>
    </g>
    <g>
      <line class="st2" x1="534.33" y1="67.32" x2="534.33" y2="192.05"/>
      <line class="st5" x1="534.33" y1="192.05" x2="534.33" y2="202.96"/>
      <line class="st4" x1="534.33" y1="202.96" x2="534.33" y2="387.92"/>
      <line class="st3" x1="534.33" y1="387.92" x2="534.33" y2="414.85"/>
      <line class="st1" x1="534.33" y1="360.99" x2="534.33" y2="387.92"/>
    </g>
    <g>
      <line class="st2" x1="552.76" y1="67.32" x2="552.76" y2="192.05"/>
      <line class="st5" x1="552.76" y1="192.05" x2="552.76" y2="202.96"/>
      <line class="st4" x1="552.76" y1="202.96" x2="552.76" y2="387.92"/>
      <line class="st3" x1="552.76" y1="387.92" x2="552.76" y2="414.85"/>
      <line class="st1" x1="552.76" y1="360.99" x2="552.76" y2="387.92"/>
    </g>
    <g>
      <line class="st2" x1="571.18" y1="67.32" x2="571.18" y2="192.05"/>
      <line class="st5" x1="571.18" y1="192.05" x2="571.18" y2="202.96"/>
      <line class="st4" x1="571.18" y1="202.96" x2="571.18" y2="387.92"/>
      <line class="st3" x1="571.18" y1="387.92" x2="571.18" y2="414.85"/>
      <line class="st1" x1="571.18" y1="360.99" x2="571.18" y2="387.92"/>
    </g>
    <g>
      <line class="st2" x1="589.61" y1="67.32" x2="589.61" y2="192.05"/>
      <line class="st5" x1="589.61" y1="192.05" x2="589.61" y2="202.96"/>
      <line class="st4" x1="589.61" y1="202.96" x2="589.61" y2="387.92"/>
      <line class="st3" x1="589.61" y1="387.92" x2="589.61" y2="414.85"/>
      <line class="st1" x1="589.61" y1="360.99" x2="589.61" y2="387.92"/>
    </g>
  </g>
  <g id="Needles_copy" class="st13">
    <g>
      <line class="st2" x1="18.43" y1="59.53" x2="18.43" y2="184.25"/>
      <line class="st5" x1="18.43" y1="184.25" x2="18.43" y2="195.17"/>
      <line class="st4" x1="18.43" y1="195.17" x2="18.43" y2="380.13"/>
      <line class="st3" x1="18.43" y1="380.13" x2="18.43" y2="407.06"/>
      <line class="st1" x1="18.43" y1="353.2" x2="18.43" y2="380.13"/>
    </g>
    <g>
      <line class="st2" x1="36.85" y1="113.39" x2="36.85" y2="238.11"/>
      <line class="st5" x1="36.85" y1="238.11" x2="36.85" y2="249.02"/>
      <line class="st4" x1="36.85" y1="249.02" x2="36.85" y2="433.98"/>
      <line class="st3" x1="36.85" y1="433.98" x2="36.85" y2="460.91"/>
      <line class="st1" x1="36.85" y1="407.06" x2="36.85" y2="433.98"/>
    </g>
    <g>
      <line class="st2" x1="55.28" y1="112.54" x2="55.28" y2="237.26"/>
      <line class="st5" x1="55.28" y1="237.26" x2="55.28" y2="248.17"/>
      <line class="st4" x1="55.28" y1="248.17" x2="55.28" y2="433.13"/>
      <line class="st3" x1="55.28" y1="433.13" x2="55.28" y2="460.06"/>
      <line class="st1" x1="55.28" y1="406.2" x2="55.28" y2="433.13"/>
    </g>
    <g>
      <line class="st2" x1="73.7" y1="113.39" x2="73.7" y2="238.11"/>
      <line class="st5" x1="73.7" y1="238.11" x2="73.7" y2="249.02"/>
      <line class="st4" x1="73.7" y1="249.02" x2="73.7" y2="433.98"/>
      <line class="st3" x1="73.7" y1="433.98" x2="73.7" y2="460.91"/>
      <line class="st1" x1="73.7" y1="407.06" x2="73.7" y2="433.98"/>
    </g>
    <g>
      <line class="st2" x1="92.13" y1="51.02" x2="92.13" y2="175.75"/>
      <line class="st5" x1="92.13" y1="175.75" x2="92.13" y2="186.66"/>
      <line class="st4" x1="92.13" y1="186.66" x2="92.13" y2="371.62"/>
      <line class="st3" x1="92.13" y1="371.62" x2="92.13" y2="398.55"/>
      <line class="st1" x1="92.13" y1="344.69" x2="92.13" y2="371.62"/>
    </g>
    <g>
      <line class="st2" x1="110.55" y1="51.02" x2="110.55" y2="175.75"/>
      <line class="st5" x1="110.55" y1="175.75" x2="110.55" y2="186.66"/>
      <line class="st4" x1="110.55" y1="186.66" x2="110.55" y2="371.62"/>
      <line class="st3" x1="110.55" y1="371.62" x2="110.55" y2="398.55"/>
      <line class="st1" x1="110.55" y1="344.69" x2="110.55" y2="371.62"/>
    </g>
    <g>
      <line class="st2" x1="128.98" y1="48.19" x2="128.98" y2="172.91"/>
      <line class="st5" x1="128.98" y1="172.91" x2="128.98" y2="183.83"/>
      <line class="st4" x1="128.98" y1="183.83" x2="128.98" y2="368.79"/>
      <line class="st3" x1="128.98" y1="368.79" x2="128.98" y2="395.72"/>
      <line class="st1" x1="128.98" y1="341.86" x2="128.98" y2="368.79"/>
    </g>
    <g>
      <line class="st2" x1="147.4" y1="31.18" x2="147.4" y2="155.91"/>
      <line class="st5" x1="147.4" y1="155.91" x2="147.4" y2="166.82"/>
      <line class="st4" x1="147.4" y1="166.82" x2="147.4" y2="351.78"/>
      <line class="st3" x1="147.4" y1="351.78" x2="147.4" y2="378.71"/>
      <line class="st1" x1="147.4" y1="324.85" x2="147.4" y2="351.78"/>
    </g>
    <g>
      <line class="st2" x1="165.83" y1="27.48" x2="165.83" y2="152.2"/>
      <line class="st5" x1="165.83" y1="152.2" x2="165.83" y2="163.12"/>
      <line class="st4" x1="165.83" y1="163.12" x2="165.83" y2="348.08"/>
      <line class="st3" x1="165.83" y1="348.08" x2="165.83" y2="375.01"/>
      <line class="st1" x1="165.83" y1="321.15" x2="165.83" y2="348.08"/>
    </g>
    <g>
      <line class="st2" x1="184.25" y1="28.35" x2="184.25" y2="153.07"/>
      <line class="st5" x1="184.25" y1="153.07" x2="184.25" y2="163.98"/>
      <line class="st4" x1="184.25" y1="163.98" x2="184.25" y2="348.94"/>
      <line class="st3" x1="184.25" y1="348.94" x2="184.25" y2="375.87"/>
      <line class="st1" x1="184.25" y1="322.02" x2="184.25" y2="348.94"/>
    </g>
    <g>
      <line class="st2" x1="202.68" y1="28.35" x2="202.68" y2="153.07"/>
      <line class="st5" x1="202.68" y1="153.07" x2="202.68" y2="163.98"/>
      <line class="st4" x1="202.68" y1="163.98" x2="202.68" y2="348.94"/>
      <line class="st3" x1="202.68" y1="348.94" x2="202.68" y2="375.87"/>
      <line class="st1" x1="202.68" y1="322.02" x2="202.68" y2="348.94"/>
    </g>
    <g>
      <line class="st2" x1="221.1" y1="28.35" x2="221.1" y2="153.07"/>
      <line class="st5" x1="221.1" y1="153.07" x2="221.1" y2="163.98"/>
      <line class="st4" x1="221.1" y1="163.98" x2="221.1" y2="348.94"/>
      <line class="st3" x1="221.1" y1="348.94" x2="221.1" y2="375.87"/>
      <line class="st1" x1="221.1" y1="322.02" x2="221.1" y2="348.94"/>
    </g>
    <g>
      <line class="st2" x1="239.53" y1="28.35" x2="239.53" y2="153.07"/>
      <line class="st5" x1="239.53" y1="153.07" x2="239.53" y2="163.98"/>
      <line class="st4" x1="239.53" y1="163.98" x2="239.53" y2="348.94"/>
      <line class="st3" x1="239.53" y1="348.94" x2="239.53" y2="375.87"/>
      <line class="st1" x1="239.53" y1="322.02" x2="239.53" y2="348.94"/>
    </g>
    <g>
      <line class="st2" x1="257.95" y1="28.35" x2="257.95" y2="153.07"/>
      <line class="st5" x1="257.95" y1="153.07" x2="257.95" y2="163.98"/>
      <line class="st4" x1="257.95" y1="163.98" x2="257.95" y2="348.94"/>
      <line class="st3" x1="257.95" y1="348.94" x2="257.95" y2="375.87"/>
      <line class="st1" x1="257.95" y1="322.02" x2="257.95" y2="348.94"/>
    </g>
    <g>
      <line class="st2" x1="276.38" y1="28.35" x2="276.38" y2="153.07"/>
      <line class="st5" x1="276.38" y1="153.07" x2="276.38" y2="163.98"/>
      <line class="st4" x1="276.38" y1="163.98" x2="276.38" y2="348.94"/>
      <line class="st3" x1="276.38" y1="348.94" x2="276.38" y2="375.87"/>
      <line class="st1" x1="276.38" y1="322.02" x2="276.38" y2="348.94"/>
    </g>
    <g>
      <line class="st2" x1="294.8" y1="28.35" x2="294.8" y2="153.07"/>
      <line class="st5" x1="294.8" y1="153.07" x2="294.8" y2="163.98"/>
      <line class="st4" x1="294.8" y1="163.98" x2="294.8" y2="348.94"/>
      <line class="st3" x1="294.8" y1="348.94" x2="294.8" y2="375.87"/>
      <line class="st1" x1="294.8" y1="322.02" x2="294.8" y2="348.94"/>
    </g>
    <g>
      <line class="st2" x1="313.23" y1="2.83" x2="313.23" y2="127.56"/>
      <line class="st5" x1="313.23" y1="127.56" x2="313.23" y2="138.47"/>
      <line class="st4" x1="313.23" y1="138.47" x2="313.23" y2="323.43"/>
      <line class="st3" x1="313.23" y1="323.43" x2="313.23" y2="350.36"/>
      <line class="st1" x1="313.23" y1="296.5" x2="313.23" y2="323.43"/>
    </g>
    <g>
      <line class="st2" x1="331.65" y1="2.83" x2="331.65" y2="127.56"/>
      <line class="st5" x1="331.65" y1="127.56" x2="331.65" y2="138.47"/>
      <line class="st4" x1="331.65" y1="138.47" x2="331.65" y2="323.43"/>
      <line class="st3" x1="331.65" y1="323.43" x2="331.65" y2="350.36"/>
      <line class="st1" x1="331.65" y1="296.5" x2="331.65" y2="323.43"/>
    </g>
    <g>
      <line class="st2" x1="350.08" y1="2.83" x2="350.08" y2="127.56"/>
      <line class="st5" x1="350.08" y1="127.56" x2="350.08" y2="138.47"/>
      <line class="st4" x1="350.08" y1="138.47" x2="350.08" y2="323.43"/>
      <line class="st3" x1="350.08" y1="323.43" x2="350.08" y2="350.36"/>
      <line class="st1" x1="350.08" y1="296.5" x2="350.08" y2="323.43"/>
    </g>
    <g>
      <line class="st2" x1="368.5" y1="2.83" x2="368.5" y2="127.56"/>
      <line class="st5" x1="368.5" y1="127.56" x2="368.5" y2="138.47"/>
      <line class="st4" x1="368.5" y1="138.47" x2="368.5" y2="323.43"/>
      <line class="st3" x1="368.5" y1="323.43" x2="368.5" y2="350.36"/>
      <line class="st1" x1="368.5" y1="296.5" x2="368.5" y2="323.43"/>
    </g>
    <g>
      <line class="st2" x1="386.93" y1="2.83" x2="386.93" y2="127.56"/>
      <line class="st5" x1="386.93" y1="127.56" x2="386.93" y2="138.47"/>
      <line class="st4" x1="386.93" y1="138.47" x2="386.93" y2="323.43"/>
      <line class="st3" x1="386.93" y1="323.43" x2="386.93" y2="350.36"/>
      <line class="st1" x1="386.93" y1="296.5" x2="386.93" y2="323.43"/>
    </g>
    <g>
      <line class="st2" x1="405.35" y1="2.83" x2="405.35" y2="127.56"/>
      <line class="st5" x1="405.35" y1="127.56" x2="405.35" y2="138.47"/>
      <line class="st4" x1="405.35" y1="138.47" x2="405.35" y2="323.43"/>
      <line class="st3" x1="405.35" y1="323.43" x2="405.35" y2="350.36"/>
      <line class="st1" x1="405.35" y1="296.5" x2="405.35" y2="323.43"/>
    </g>
    <g>
      <line class="st2" x1="423.78" y1="2.83" x2="423.78" y2="127.56"/>
      <line class="st5" x1="423.78" y1="127.56" x2="423.78" y2="138.47"/>
      <line class="st4" x1="423.78" y1="138.47" x2="423.78" y2="323.43"/>
      <line class="st3" x1="423.78" y1="323.43" x2="423.78" y2="350.36"/>
      <line class="st1" x1="423.78" y1="296.5" x2="423.78" y2="323.43"/>
    </g>
    <g>
      <line class="st2" x1="442.2" y1="2.83" x2="442.2" y2="127.56"/>
      <line class="st5" x1="442.2" y1="127.56" x2="442.2" y2="138.47"/>
      <line class="st4" x1="442.2" y1="138.47" x2="442.2" y2="323.43"/>
      <line class="st3" x1="442.2" y1="323.43" x2="442.2" y2="350.36"/>
      <line class="st1" x1="442.2" y1="296.5" x2="442.2" y2="323.43"/>
    </g>
    <g>
      <line class="st2" x1="460.63" y1="2.83" x2="460.63" y2="127.56"/>
      <line class="st5" x1="460.63" y1="127.56" x2="460.63" y2="138.47"/>
      <line class="st4" x1="460.63" y1="138.47" x2="460.63" y2="323.43"/>
      <line class="st3" x1="460.63" y1="323.43" x2="460.63" y2="350.36"/>
      <line class="st1" x1="460.63" y1="296.5" x2="460.63" y2="323.43"/>
    </g>
    <g>
      <line class="st2" x1="479.06" y1="2.83" x2="479.06" y2="127.56"/>
      <line class="st5" x1="479.06" y1="127.56" x2="479.06" y2="138.47"/>
      <line class="st4" x1="479.06" y1="138.47" x2="479.06" y2="323.43"/>
      <line class="st3" x1="479.06" y1="323.43" x2="479.06" y2="350.36"/>
      <line class="st1" x1="479.06" y1="296.5" x2="479.06" y2="323.43"/>
    </g>
    <g>
      <line class="st2" x1="497.48" y1="2.83" x2="497.48" y2="127.56"/>
      <line class="st5" x1="497.48" y1="127.56" x2="497.48" y2="138.47"/>
      <line class="st4" x1="497.48" y1="138.47" x2="497.48" y2="323.43"/>
      <line class="st3" x1="497.48" y1="323.43" x2="497.48" y2="350.36"/>
      <line class="st1" x1="497.48" y1="296.5" x2="497.48" y2="323.43"/>
    </g>
    <g>
      <line class="st2" x1="515.91" y1="2.83" x2="515.91" y2="127.56"/>
      <line class="st5" x1="515.91" y1="127.56" x2="515.91" y2="138.47"/>
      <line class="st4" x1="515.91" y1="138.47" x2="515.91" y2="323.43"/>
      <line class="st3" x1="515.91" y1="323.43" x2="515.91" y2="350.36"/>
      <line class="st1" x1="515.91" y1="296.5" x2="515.91" y2="323.43"/>
    </g>
    <g>
      <line class="st2" x1="534.33" y1="2.83" x2="534.33" y2="127.56"/>
      <line class="st5" x1="534.33" y1="127.56" x2="534.33" y2="138.47"/>
      <line class="st4" x1="534.33" y1="138.47" x2="534.33" y2="323.43"/>
      <line class="st3" x1="534.33" y1="323.43" x2="534.33" y2="350.36"/>
      <line class="st1" x1="534.33" y1="296.5" x2="534.33" y2="323.43"/>
    </g>
    <g>
      <line class="st2" x1="552.76" y1="2.83" x2="552.76" y2="127.56"/>
      <line class="st5" x1="552.76" y1="127.56" x2="552.76" y2="138.47"/>
      <line class="st4" x1="552.76" y1="138.47" x2="552.76" y2="323.43"/>
      <line class="st3" x1="552.76" y1="323.43" x2="552.76" y2="350.36"/>
      <line class="st1" x1="552.76" y1="296.5" x2="552.76" y2="323.43"/>
    </g>
    <g>
      <line class="st2" x1="571.18" y1="2.83" x2="571.18" y2="127.56"/>
      <line class="st5" x1="571.18" y1="127.56" x2="571.18" y2="138.47"/>
      <line class="st4" x1="571.18" y1="138.47" x2="571.18" y2="323.43"/>
      <line class="st3" x1="571.18" y1="323.43" x2="571.18" y2="350.36"/>
      <line class="st1" x1="571.18" y1="296.5" x2="571.18" y2="323.43"/>
    </g>
    <g>
      <line class="st2" x1="589.61" y1="2.83" x2="589.61" y2="127.56"/>
      <line class="st5" x1="589.61" y1="127.56" x2="589.61" y2="138.47"/>
      <line class="st4" x1="589.61" y1="138.47" x2="589.61" y2="323.43"/>
      <line class="st3" x1="589.61" y1="323.43" x2="589.61" y2="350.36"/>
      <line class="st1" x1="589.61" y1="296.5" x2="589.61" y2="323.43"/>
    </g>
  </g>
  <g id="Mk1_Cams_copy" class="st13">
    <rect id="Back_cover1" data-name="Back_cover" class="st16" width="608.71" height="124.72"/>
    <rect id="Spongebar1" data-name="Spongebar" class="st16" y="289.13" width="608.71" height="34.02"/>
    <g id="L_cams">
      <path id="Upthrow_cam" class="st11" d="M304.72,144.56v109.89c-25.49,0-101.95-104.22-136.76-104.22-32.86,0-46.76,34-66.3,27.92-12.91-4.01-46.39-27.92-46.39-27.92,0,0,8.21-4.94,11.27-5.67h238.18Z"/>
      <path id="T1" class="st9" d="M167.96,164.41c-28.84.27-87.33,78.31-112.68,90.71,0,0,29.72,19.84,39.58,19.42l209.87.43v-5.67c-48.25-.08-114.23-105.09-136.76-104.88Z"/>
      <path id="T2" class="st9" d="M167.96,170.08c-28.84.27-87.33,72.64-112.68,85.04,0,0,29.72,19.84,39.58,19.42l209.87.43v-5.67c-48.25-.08-114.23-99.43-136.76-99.21Z"/>
      <path id="T3" class="st9" d="M167.96,175.75c-28.84.27-87.33,66.97-112.68,79.37,0,0,29.72,19.84,39.58,19.42l209.87.43v-5.67c-48.25-.08-114.23-93.76-136.76-93.54Z"/>
      <path id="T4" class="st9" d="M167.96,181.42c-28.84.27-87.33,61.3-112.68,73.7,0,0,29.72,19.84,39.58,19.42l209.87.43v-5.67c-48.25-.08-114.23-88.09-136.76-87.87Z"/>
      <path id="T5" class="st9" d="M167.96,184.25c-28.84.27-87.33,58.46-112.68,70.87,0,0,29.72,19.84,39.58,19.42l209.87.43v-5.67c-48.25-.08-114.23-85.25-136.76-85.04Z"/>
      <path id="T6" class="st9" d="M167.96,187.09c-28.84.27-87.33,55.63-112.68,68.03,0,0,29.72,19.84,39.58,19.42l209.87.43v-5.67c-48.25-.08-114.23-82.42-136.76-82.2Z"/>
      <path id="T7" class="st9" d="M167.96,189.92c-28.84.27-87.33,52.8-112.68,65.2,0,0,29.72,19.84,39.58,19.42l209.87.43v-5.67c-48.25-.08-114.23-79.58-136.76-79.37Z"/>
      <text class="st15" transform="translate(157.3 241.8)"><tspan x="0" y="0">T 7</tspan></text>
    </g>
    <g id="R_cams">
      <g id="Upthrow_cam1" data-name="Upthrow_cam">
        <path class="st11" d="M304.73,144.56v109.89c25.49,0,101.95-104.22,136.76-104.22,32.86,0,46.76,34,66.3,27.92,12.91-4.01,46.39-27.92,46.39-27.92,0,0-8.21-4.94-11.27-5.67h-238.18Z"/>
      </g>
      <path id="T11" data-name="T1" class="st9" d="M441.49,164.41c28.84.27,87.33,78.31,112.68,90.71,0,0-29.72,19.84-39.58,19.42l-209.87.43v-5.67c48.25-.08,114.23-105.09,136.76-104.88Z"/>
      <path id="T21" data-name="T2" class="st9" d="M441.49,170.08c28.84.27,87.33,72.64,112.68,85.04,0,0-29.72,19.84-39.58,19.42l-209.87.43v-5.67c48.25-.08,114.23-99.43,136.76-99.21Z"/>
      <path id="T31" data-name="T3" class="st9" d="M441.49,175.75c28.84.27,87.33,66.97,112.68,79.37,0,0-29.72,19.84-39.58,19.42l-209.87.43v-5.67c48.25-.08,114.23-93.76,136.76-93.54Z"/>
      <path id="T41" data-name="T4" class="st9" d="M441.49,181.42c28.84.27,87.33,61.3,112.68,73.7,0,0-29.72,19.84-39.58,19.42l-209.87.43v-5.67c48.25-.08,114.23-88.09,136.76-87.87Z"/>
      <path id="T51" data-name="T5" class="st9" d="M441.49,184.25c28.84.27,87.33,58.46,112.68,70.87,0,0-29.72,19.84-39.58,19.42l-209.87.43v-5.67c48.25-.08,114.23-85.25,136.76-85.04Z"/>
      <path id="T61" data-name="T6" class="st9" d="M441.49,187.09c28.84.27,87.33,55.63,112.68,68.03,0,0-29.72,19.84-39.58,19.42l-209.87.43v-5.67c48.25-.08,114.23-82.42,136.76-82.2Z"/>
      <path id="T71" data-name="T7" class="st9" d="M441.49,189.92c28.84.27,87.33,52.8,112.68,65.2,0,0-29.72,19.84-39.58,19.42l-209.87.43v-5.67c48.25-.08,114.23-79.58,136.76-79.37Z"/>
    </g>
    <circle class="st11" cx="96.38" cy="255.83" r="4.25"/>
    <circle class="st11" cx="243.78" cy="261.5" r="4.25"/>
    <circle class="st11" cx="164.41" cy="210.47" r="4.25"/>
  </g>
  <g id="Tension_adjustment_slot">
    <g id="Original_ellipses" class="st13">
      <circle class="st22" cx="167.43" cy="179.05" r="4.25"/>
      <circle class="st22" cx="165.39" cy="181.65" r="4.25"/>
      <circle class="st22" cx="163.53" cy="184.16" r="4.25"/>
      <circle class="st22" cx="161.69" cy="186.76" r="4.25"/>
      <circle class="st22" cx="159.91" cy="189.41" r="4.25"/>
      <circle class="st22" cx="158.09" cy="192.3" r="4.25"/>
      <circle class="st22" cx="156.45" cy="195.06" r="4.25"/>
    </g>
    <path id="TSlot" class="st14" d="M164.41,176.06c-.65.7-2.07,2.02-6.08,8.09-3.62,5.48-5.43,8.47-5.9,9.51-.51,1.13-1.06,3.18,1.41,4.75,3.6,2.29,4.78.64,5.69-.42,1.11-1.31,5.21-8.16,5.62-8.76s5.17-6.94,5.65-7.58c.84-1.12,2.19-3.02-.34-5.59-2.68-2.73-5.01-1.1-6.04,0Z"/>
  </g>
  <g id="Mk2_Basic_Open_Cams_R">
    <path id="Back_cam" class="st11" d="M304.72,144.56v5.67s101.95,0,136.76,0c32.86,0,80.09,42.1,80.09,42.1l43.94-42.1s-19.55-4.94-22.61-5.67h-238.18Z"/>
    <path id="Bumper_cam" class="st11" d="M304.72,215.01v-5.67h40.38c1.43,0,4.97,2.84,4.97,2.84,0,0-3.4,2.83-4.79,2.84h-40.56Z"/>
    <path id="Front_cam" class="st11" d="M496.92,269.3c28.84.27,31.9-26.58,57.26-14.18,0,0-29.72,19.84-39.58,19.42l-209.87.43v-19.84c6.81,5.61,12.17,13.5,43.64,14.18,53.78,1.16,132.38-.15,148.55,0Z"/>
    <circle id="Tension_pivot" class="st17" cx="345.28" cy="257.6" r="8.5"/>
    <circle id="Tension_pivot_hole" class="st14" cx="345.28" cy="257.6" r="4.25"/>
    <g id="Tension_range" class="st13">
      <g id="T12" data-name="T1">
        <circle class="st11" cx="442.01" cy="179.05" r="4.25"/>
        <path id="T13" data-name="T1" class="st10" d="M441.26,164.17c7.13-1.24,24.91,8.28,24.91,8.28,0,0-31.03,28.98-47.02,40.83-25.03,18.55-73.87,43.96-73.87,43.96,0,0,83.51-90.91,95.98-93.07Z"/>
      </g>
      <g id="T14" data-name="T1">
        <circle class="st11" cx="444.06" cy="181.65" r="4.25"/>
        <path id="T15" data-name="T1" class="st10" d="M443.7,166.76c7.16-1.05,24.68,8.94,24.68,8.94,0,0-31.79,28.15-48.09,39.56-25.52,17.88-75.02,41.98-75.02,41.98,0,0,85.9-88.66,98.42-90.48Z"/>
      </g>
      <g id="T16" data-name="T1">
        <circle class="st11" cx="445.92" cy="184.16" r="4.25"/>
        <path id="T17" data-name="T1" class="st10" d="M445.94,169.26c7.18-.87,24.45,9.56,24.45,9.56,0,0-32.49,27.34-49.06,38.34-25.96,17.23-76.05,40.09-76.05,40.09,0,0,88.09-86.47,100.66-87.99Z"/>
      </g>
      <g id="T18" data-name="T1">
        <circle class="st11" cx="447.76" cy="186.76" r="4.25"/>
        <path id="T19" data-name="T1" class="st10" d="M448.16,171.87c7.2-.68,24.2,10.18,24.2,10.18,0,0-33.18,26.5-50.03,37.07-26.39,16.56-77.05,38.13-77.05,38.13,0,0,90.28-84.19,102.88-85.38Z"/>
      </g>
      <g id="T110" data-name="T1">
        <circle class="st11" cx="449.54" cy="189.41" r="4.25"/>
        <path id="T111" data-name="T1" class="st10" d="M450.32,174.53c7.22-.5,23.93,10.8,23.93,10.8,0,0-33.85,25.64-50.96,35.78-26.81,15.88-78,36.14-78,36.14,0,0,92.41-81.84,105.04-82.71Z"/>
      </g>
      <g id="T112" data-name="T1">
        <circle class="st11" cx="451.36" cy="192.3" r="4.25"/>
        <path id="T113" data-name="T1" class="st10" d="M452.55,177.45c7.23-.3,23.62,11.45,23.62,11.45,0,0-34.54,24.7-51.93,34.36-27.23,15.14-78.96,33.98-78.96,33.98,0,0,94.62-79.28,107.27-79.8Z"/>
      </g>
    </g>
    <polygon id="Hex_nut" class="st24" points="452.18 184.26 461.95 188.95 462.77 199.75 453.82 205.86 444.05 201.17 443.24 190.37 452.18 184.26"/>
    <path class="st8" d="M452.35,199.26c2.32.36,4.49-1.23,4.85-3.55.36-2.32-1.23-4.49-3.55-4.85-2.32-.36-4.49,1.23-4.85,3.55-.36,2.32,1.23,4.49,3.55,4.85Z"/>
    <path id="TCam" class="st12" d="M454.58,180.24c7.23-.11,23.32,12.06,23.32,12.06,0,0-35.16,23.8-52.8,33.01-27.62,14.43-77.9,35.26-79.81,31.93-2.08-3.62,96.64-76.81,109.29-77ZM452.35,199.26c2.32.36,4.49-1.23,4.85-3.55.36-2.32-1.23-4.49-3.55-4.85-2.32-.36-4.49,1.23-4.85,3.55-.36,2.32,1.23,4.49,3.55,4.85Z"/>
  </g>
  <g id="Mk2_Basic_Open_Cams_L">
    <path id="Back_cam1" data-name="Back_cam" class="st11" d="M304.72,144.56v5.67s-101.95,0-136.76,0c-32.86,0-80.09,42.1-80.09,42.1l-43.94-42.1s19.55-4.94,22.61-5.67h238.18Z"/>
    <path id="Bumper_cam1" data-name="Bumper_cam" class="st11" d="M304.72,215.01v-5.67h-40.38c-1.43,0-4.97,2.84-4.97,2.84,0,0,3.4,2.83,4.79,2.84h40.56Z"/>
    <path id="Front_cam1" data-name="Front_cam" class="st11" d="M112.53,269.3c-28.84.27-31.9-26.58-57.26-14.18,0,0,29.72,19.84,39.58,19.42l209.87.43v-19.84c-6.81,5.61-12.17,13.5-43.64,14.18-53.78,1.16-132.38-.15-148.55,0Z"/>
    <circle id="Tension_pivot1" data-name="Tension_pivot" class="st17" cx="264.16" cy="257.6" r="8.5"/>
    <circle id="Tension_pivot_hole1" data-name="Tension_pivot_hole" class="st14" cx="264.16" cy="257.6" r="4.25"/>
    <g id="Tension_range1" data-name="Tension_range" class="st13">
      <g id="T114" data-name="T1">
        <circle class="st11" cx="167.43" cy="179.05" r="4.25"/>
        <path id="T115" data-name="T1" class="st10" d="M168.19,164.17c-7.13-1.24-24.91,8.28-24.91,8.28,0,0,31.03,28.98,47.02,40.83,25.03,18.55,73.87,43.96,73.87,43.96,0,0-83.51-90.91-95.98-93.07Z"/>
      </g>
      <g id="T116" data-name="T1">
        <circle class="st11" cx="165.39" cy="181.65" r="4.25"/>
        <path id="T117" data-name="T1" class="st10" d="M165.75,166.76c-7.16-1.05-24.68,8.94-24.68,8.94,0,0,31.79,28.15,48.09,39.56,25.52,17.88,75.02,41.98,75.02,41.98,0,0-85.9-88.66-98.42-90.48Z"/>
      </g>
      <g id="T118" data-name="T1">
        <circle class="st11" cx="163.53" cy="184.16" r="4.25"/>
        <path id="T119" data-name="T1" class="st10" d="M163.51,169.26c-7.18-.87-24.45,9.56-24.45,9.56,0,0,32.49,27.34,49.06,38.34,25.96,17.23,76.05,40.09,76.05,40.09,0,0-88.09-86.47-100.66-87.99Z"/>
      </g>
      <g id="T120" data-name="T1">
        <circle class="st11" cx="161.69" cy="186.76" r="4.25"/>
        <path id="T121" data-name="T1" class="st10" d="M161.29,171.87c-7.2-.68-24.2,10.18-24.2,10.18,0,0,33.18,26.5,50.03,37.07,26.39,16.56,77.05,38.13,77.05,38.13,0,0-90.28-84.19-102.88-85.38Z"/>
      </g>
      <g id="T122" data-name="T1">
        <circle class="st11" cx="159.91" cy="189.41" r="4.25"/>
        <path id="T123" data-name="T1" class="st10" d="M159.13,174.53c-7.22-.5-23.93,10.8-23.93,10.8,0,0,33.85,25.64,50.96,35.78,26.81,15.88,78,36.14,78,36.14,0,0-92.41-81.84-105.04-82.71Z"/>
      </g>
      <g id="T124" data-name="T1">
        <circle class="st11" cx="158.09" cy="192.3" r="4.25"/>
        <path id="T125" data-name="T1" class="st10" d="M156.9,177.45c-7.23-.3-23.62,11.45-23.62,11.45,0,0,34.54,24.7,51.93,34.36,27.23,15.14,78.96,33.98,78.96,33.98,0,0-94.62-79.28-107.27-79.8Z"/>
      </g>
    </g>
    <polygon id="Hex_nut1" data-name="Hex_nut" class="st24" points="157.26 184.26 147.5 188.95 146.68 199.75 155.63 205.86 165.39 201.17 166.21 190.37 157.26 184.26"/>
    <path class="st8" d="M157.1,199.26c-2.32.36-4.49-1.23-4.85-3.55-.36-2.32,1.23-4.49,3.55-4.85,2.32-.36,4.49,1.23,4.85,3.55.36,2.32-1.23,4.49-3.55,4.85Z"/>
    <path id="TCam1" data-name="TCam" class="st12" d="M154.87,180.24c-7.23-.11-23.32,12.06-23.32,12.06,0,0,35.16,23.8,52.8,33.01,27.62,14.43,77.9,35.26,79.81,31.93,2.08-3.62-96.64-76.81-109.29-77ZM157.1,199.26c-2.32.36-4.49-1.23-4.85-3.55-.36-2.32,1.23-4.49,3.55-4.85,2.32-.36,4.49,1.23,4.85,3.55.36,2.32-1.23,4.49-3.55,4.85Z"/>
  </g>
  <g id="Notes">
    <text class="st15" transform="translate(626.4 212.68)"><tspan x="0" y="0">Working track + </tspan><tspan x="0" y="14.4">upper working track: 42mm</tspan></text>
    <text class="st15" transform="translate(626.4 457.25)"><tspan x="0" y="0">Needle extension: 34.5mm</tspan></text>
    <text class="st15" transform="translate(626.4 46.76)"><tspan x="0" y="0">back cover: 44mm</tspan></text>
    <text class="st15" transform="translate(626.4 135.1)"><tspan x="0" y="0">OOW track: 8mm</tspan></text>
    <text class="st15" transform="translate(626.4 285.16)"><tspan x="0" y="0">Hold track: 8mm incl. 2mm wall </tspan></text>
    <text class="st15" transform="translate(626.4 310.72)"><tspan x="0" y="0">Sponge bar: 12mm</tspan></text>
    <text class="st15" transform="translate(626.4 364.59)"><tspan x="0" y="0" xml:space="preserve">Comb:  29mm</tspan></text>
    <text class="st15" transform="translate(627.91 152.76)"><tspan x="0" y="0">incl. 2mm wall</tspan></text>
    <text/>
    <text class="st15" transform="translate(-142.25 191.5)"><tspan x="0" y="0">Working track (B)</tspan></text>
    <text class="st15" transform="translate(-139.75 249.11)"><tspan x="0" y="0">Forward/upper </tspan><tspan x="0" y="14.4">working track (C)</tspan></text>
  </g>
</svg>